# xmcd CD database file
#
# Track frame offsets:
#	150
#	35875
#	43950
#	60505
#	76837
#	87175
#	103400
#	119850
#	134175
#	148237
#	166250
#	179137
#	203005
#	215337
#	222675
#
# Disc length: 3177 seconds
#
# Revision: 0
# Processed by: cddbd v1.5.1PL0 Copyright (c) Steve Scherf et al.
# Submitted via: CDex 1.51
#
DISCID=fc0c670f
DTITLE=Willie Nelson - Willie Nelson In Concert - To All The Girls I've Loved Before
DYEAR=1900
DGENRE=Country
TTITLE0=Funny Hopw Time Slips Away - Crazy/ Nightlife
TTITLE1=If You Got The Money, Honey I Got The Time
TTITLE2=Georgia On My Mind
TTITLE3=Stardust
TTITLE4=On The Road Again
TTITLE5=You Were Always On My Mind
TTITLE6=Angel Flying Too Close To The Ground
TTITLE7=Good Hearted Women
TTITLE8=Blue Eyes Crying In The Rain
TTITLE9=The Red Headed Stranger
TTITLE10=City Of New Orleans
TTITLE11=To All TYhe Girls I've Loved Before
TTITLE12=Till I Can Gain Control Again
TTITLE13=Seven Spanish Angels
TTITLE14=Luckenbach, Texas
EXTD=
EXTT0=
EXTT1=
EXTT2=
EXTT3=
EXTT4=
EXTT5=
EXTT6=
EXTT7=
EXTT8=
EXTT9=
EXTT10=
EXTT11=
EXTT12=
EXTT13=
EXTT14=
PLAYORDER=
